<svg width="54" height="54" viewBox="0 0 54 54" fill="none" xmlns="http://www.w3.org/2000/svg">
<path d="M27 0C41.9133 0 54 12.0867 54 27C54 41.9133 41.9133 54 27 54C12.0867 54 0 41.9133 0 27C0 12.0867 12.092 0 27 0Z" fill="#10B981"/>
<path d="M36.0309 21.066C36.2535 23.316 35.4437 24.9108 33.6017 25.8504C35.0481 26.1965 36.1298 26.8332 36.8469 27.7604C37.5639 28.6876 37.8421 30.0104 37.6813 31.7288C37.5948 32.6066 37.3939 33.3792 37.0787 34.0468C36.7634 34.7144 36.3647 35.2645 35.8826 35.6972C35.4004 36.1299 34.8008 36.4915 34.0838 36.782C33.3668 37.0726 32.6157 37.2858 31.8307 37.4218C31.0457 37.5578 30.1463 37.6505 29.1326 37.7V42.4287H26.2768V37.7741C25.2878 37.7741 24.5337 37.768 24.0144 37.7556V42.4287H21.1587V37.7C20.9361 37.7 20.6024 37.6969 20.1573 37.6907C19.7122 37.6845 19.3723 37.6814 19.1374 37.6814H15.4286L16.0035 34.2879H18.0618C18.68 34.2879 19.0385 33.9726 19.1374 33.3421V25.8875H19.4341C19.3599 25.8751 19.261 25.8689 19.1374 25.8689V20.5468C18.9767 19.7061 18.4265 19.2858 17.487 19.2858H15.4286V16.2446L19.3599 16.2632C20.1511 16.2632 20.7507 16.257 21.1587 16.2446V11.5715H24.0144V16.1519C25.0282 16.1272 25.7823 16.1148 26.2768 16.1148V11.5715H29.1326V16.2446C30.1092 16.3311 30.9746 16.4702 31.7287 16.6618C32.4828 16.8535 33.1813 17.1316 33.8242 17.4963C34.4671 17.861 34.977 18.3432 35.3541 18.9428C35.7311 19.5423 35.9568 20.2501 36.0309 21.066ZM32.044 31.1725C32.044 30.7274 31.9513 30.3318 31.7658 29.9857C31.5804 29.6395 31.3517 29.3552 31.0797 29.1327C30.8077 28.9101 30.4523 28.7216 30.0134 28.5671C29.5745 28.4125 29.1697 28.2982 28.7988 28.224C28.4279 28.1498 27.9705 28.0942 27.4265 28.0571C26.8826 28.02 26.4561 28.0015 26.147 28.0015C25.8379 28.0015 25.4392 28.0077 24.9509 28.02C24.4626 28.0324 24.169 28.0386 24.0701 28.0386V34.3064C24.169 34.3064 24.3977 34.3095 24.7562 34.3157C25.1147 34.3219 25.4114 34.325 25.6463 34.325C25.8812 34.325 26.2088 34.3157 26.6291 34.2972C27.0495 34.2786 27.4111 34.2539 27.714 34.223C28.0168 34.1921 28.3692 34.1395 28.771 34.0654C29.1728 33.9912 29.5158 33.9046 29.8002 33.8057C30.0845 33.7068 30.3781 33.577 30.681 33.4163C30.9839 33.2556 31.228 33.0702 31.4135 32.86C31.5989 32.6498 31.7504 32.4026 31.8678 32.1182C31.9853 31.8339 32.044 31.5186 32.044 31.1725ZM30.7274 22.3456C30.7274 21.9376 30.6501 21.576 30.4956 21.2608C30.341 20.9455 30.1525 20.6859 29.93 20.4819C29.7074 20.2779 29.4107 20.1048 29.0399 19.9627C28.669 19.8205 28.329 19.7185 28.0199 19.6567C27.7109 19.5949 27.3307 19.5454 26.8795 19.5083C26.4282 19.4713 26.0697 19.4558 25.8039 19.462C25.5381 19.4682 25.2043 19.4743 24.8026 19.4805C24.4008 19.4867 24.1566 19.4898 24.0701 19.4898V25.1828C24.1319 25.1828 24.3451 25.1859 24.7098 25.1921C25.0745 25.1983 25.362 25.1983 25.5721 25.1921C25.7823 25.1859 26.0914 25.1735 26.4993 25.155C26.9073 25.1364 27.2473 25.1024 27.5192 25.053C27.7912 25.0035 28.1096 24.9355 28.4743 24.849C28.839 24.7625 29.1388 24.6481 29.3736 24.5059C29.6085 24.3638 29.8372 24.1969 30.0598 24.0053C30.2823 23.8136 30.4492 23.5757 30.5605 23.2913C30.6717 23.007 30.7274 22.6917 30.7274 22.3456Z" fill="white"/>
</svg>
